<?xml version="1.0" encoding="iso-8859-1"?>
<!-- Generator: Adobe Illustrator 19.0.0, SVG Export Plug-In . SVG Version: 6.00 Build 0)  -->
<svg version="1.1" id="Capa_1" xmlns="http://www.w3.org/2000/svg" xmlns:xlink="http://www.w3.org/1999/xlink" x="0px" y="0px"
	 viewBox="0 0 512 512" style="enable-background:new 0 0 512 512;" xml:space="preserve">
<path style="fill:#FFB954;" d="M443.401,197.4c0-103.498-83.902-187.4-187.4-187.4s-187.4,83.902-187.4,187.4
	c0,44.866,15.774,86.043,42.069,118.305h-0.013L256.001,502l144.651-185.318h-0.109C427.315,284.276,443.401,242.717,443.401,197.4z
	"/>
<circle style="fill:#FFFFFF;" cx="256.001" cy="197.4" r="124"/>
<rect x="196.001" y="186.04" style="fill:#D8D8E4;" width="120" height="92"/>
<rect x="236.001" y="226.04" style="fill:#FFFFFF;" width="40" height="52"/>
<polygon style="fill:#FF5D5D;" points="336.078,186.044 256.001,118.495 175.924,186.044 "/>
<path d="M166.531,189.477c1.441,3.944,5.193,6.567,9.393,6.567h10.077v82c0,5.522,4.477,10,10,10h120c5.523,0,10-4.478,10-10v-82
	h10.077c4.199,0,7.951-2.623,9.393-6.567s0.265-8.369-2.945-11.076l-80.077-67.549c-3.725-3.143-9.171-3.143-12.896,0L169.476,178.4
	C166.266,181.107,165.09,185.532,166.531,189.477z M246.001,268.044v-32h20v32H246.001z M306.001,268.044h-20v-42
	c0-5.522-4.477-10-10-10h-40c-5.523,0-10,4.478-10,10v42h-20v-72h100V268.044z M256.001,131.578l52.713,44.466H203.288
	L256.001,131.578z"/>
<path d="M256.001,0c-108.847,0-197.4,88.554-197.4,197.4c0,45.143,15.628,89.249,44.019,124.256c0.05,0.067,0.102,0.135,0.153,0.201
	l31.885,40.868c3.397,4.354,9.682,5.132,14.036,1.732c4.354-3.396,5.13-9.681,1.733-14.035l-31.599-40.501
	c-0.129-0.182-0.264-0.359-0.406-0.533C92.743,277.882,78.601,238.11,78.601,197.4c0-97.819,79.581-177.4,177.4-177.4
	s177.4,79.581,177.4,177.4c0,41.147-14.407,81.247-40.567,112.912c-0.341,0.412-0.644,0.847-0.91,1.299L256.003,485.745
	l-50.425-64.631c-3.396-4.354-9.68-5.131-14.036-1.732c-4.354,3.396-5.13,9.681-1.733,14.035l58.307,74.734
	c1.895,2.429,4.803,3.849,7.883,3.849l0,0c3.08,0,5.988-1.419,7.883-3.847l144.651-185.318c0.218-0.28,0.42-0.568,0.605-0.865
	c28.553-35.07,44.262-79.25,44.262-124.569C453.401,88.554,364.848,0,256.001,0z"/>
<path d="M183.663,393.023c-3.396-4.355-9.68-5.134-14.035-1.738s-5.134,9.68-1.738,14.035l0.7,0.897
	c1.972,2.529,4.917,3.852,7.893,3.852c2.149,0,4.315-0.689,6.142-2.113c4.355-3.396,5.134-9.68,1.738-14.035L183.663,393.023z"/>
<path d="M213.098,70.418c-54.488,18.404-91.097,69.434-91.097,126.982c0,73.888,60.112,134,134,134s134-60.112,134-134
	c0-27.622-8.339-54.147-24.115-76.708C350.472,98.65,329.107,81.915,304.1,72.295c-5.151-1.981-10.94,0.587-12.923,5.742
	s0.588,10.941,5.743,12.924c43.712,16.816,73.081,59.591,73.081,106.439c0,62.859-51.14,114-114,114s-114-51.141-114-114
	c0-48.962,31.144-92.378,77.497-108.033c5.232-1.768,8.042-7.442,6.274-12.675C224.005,71.46,218.331,68.655,213.098,70.418z"/>
<path d="M257.95,83.417l0.351,0.007c0.071,0.001,0.142,0.002,0.213,0.002c5.425,0,9.88-4.341,9.994-9.791
	c0.115-5.521-4.268-10.092-9.789-10.207l-0.49-0.009c-5.52-0.123-10.062,4.337-10.138,9.859
	C248.013,78.801,252.427,83.34,257.95,83.417z"/>
<g>
</g>
<g>
</g>
<g>
</g>
<g>
</g>
<g>
</g>
<g>
</g>
<g>
</g>
<g>
</g>
<g>
</g>
<g>
</g>
<g>
</g>
<g>
</g>
<g>
</g>
<g>
</g>
<g>
</g>
</svg>
