<?xml version="1.0"?>
<svg xmlns="http://www.w3.org/2000/svg" viewBox="0 0 64 64" width="512" height="512"><g id="Shopping"><path d="M39.29,50.418C45.549,43.027,54,31.638,54,24a22,22,0,0,0-44,0c0,7.638,8.451,19.027,14.71,26.418C20.474,50.944,13,52.386,13,56c0,3.939,9.558,6,19,6s19-2.061,19-6C51,52.386,43.526,50.944,39.29,50.418ZM32,4A20.023,20.023,0,0,1,52,24c0,9.874-16.353,27.7-20,31.555C28.353,51.7,12,33.878,12,24A20.023,20.023,0,0,1,32,4Zm0,56c-11,0-17-2.643-17-4,0-.945,3.33-2.977,11.293-3.742,2.7,3.094,4.732,5.176,4.993,5.442a1,1,0,0,0,1.428,0c.261-.266,2.29-2.348,4.993-5.442C45.67,53.023,49,55.055,49,56,49,57.357,43,60,32,60Z"/><path d="M32,7A17,17,0,1,0,49,24,17.019,17.019,0,0,0,32,7Zm0,32A15,15,0,1,1,42.163,13H40.781a2,2,0,0,0-1.941,1.515L38.219,17H21a1,1,0,0,0-.98,1.2l2,10A1,1,0,0,0,23,29H37.5a.5.5,0,0,1,0,1H24a1,1,0,0,0,0,2h.78a3,3,0,1,0,4.44,0h3.56a3,3,0,1,0,4.44,0h.28a2.493,2.493,0,0,0,.7-4.889l1.778-8.888L40.781,15h3.19A14.971,14.971,0,0,1,32,39Zm1.6-17,.3-3H37.78l-.6,3Zm3.175,2-.6,3H33.1l.3-3Zm-8.375-2-.3-3H31.9l-.3,3Zm2.99,2-.3,3h-2.19l-.3-3Zm-4.8,0,.3,3H23.82l-.6-3ZM22.82,22l-.6-3H26.1l.3,3ZM36,34a1,1,0,1,1-1-1A1,1,0,0,1,36,34Zm-8,0a1,1,0,1,1-1-1A1,1,0,0,1,28,34Z"/></g></svg>
